<!DOCTYPE svg PUBLIC "-//W3C//DTD SVG 1.1//EN" "http://www.w3.org/Graphics/SVG/1.1/DTD/svg11.dtd">
<svg xmlns="http://www.w3.org/2000/svg" version="1.1" width="30.58mm" height="48.36mm" viewBox="-1791200.0 469400.0 305800.0 483600.0">
            <title>Picture generated by PcbDraw </title>
            <desc>Picture generated by PcbDraw</desc>
        <defs><clipPath id="cut-off"><path d=" M 1790700.0 469900.0 L 1790700.0 952500.0 L 1485900.0 952500.0 L 1485900.0 469900.0 L 1790700.0 469900.0 " style="fill-rule: evenodd;"/></clipPath><mask id="pads-mask"><g style="fill:#ffffff; fill-opacity:0.0;  stroke:#ffffff; stroke-width:0.000000; stroke-opacity:1;  stroke-linecap:round; stroke-linejoin:round;">
<g style="fill:#ffffff; fill-opacity:1.0;  stroke:#ffffff; stroke-width:0.010000; stroke-opacity:1;  stroke-linecap:round; stroke-linejoin:round;">
<circle cx="1634490.000000" cy="491490.000000" r="6500.000000"/> 
</g>
<g style="fill:#ffffff; fill-opacity:1.0;  stroke:#ffffff; stroke-width:0.010000; stroke-opacity:1;  stroke-linecap:round; stroke-linejoin:round;">
<circle cx="1609490.000000" cy="491490.000000" r="6500.000000"/> 
</g>
<g style="fill:#ffffff; fill-opacity:1.0;  stroke:#ffffff; stroke-width:0.010000; stroke-opacity:1;  stroke-linecap:round; stroke-linejoin:round;">
<circle cx="1584490.000000" cy="491490.000000" r="6500.000000"/> 
</g>
<g style="fill:#ffffff; fill-opacity:1.0;  stroke:#ffffff; stroke-width:0.010000; stroke-opacity:1;  stroke-linecap:round; stroke-linejoin:round;">
<circle cx="1752600.000000" cy="760200.000000" r="8325.000000"/> 
</g>
<g style="fill:#ffffff; fill-opacity:1.0;  stroke:#ffffff; stroke-width:0.010000; stroke-opacity:1;  stroke-linecap:round; stroke-linejoin:round;">
<circle cx="1752600.000000" cy="734800.000000" r="8325.000000"/> 
</g>
<g style="fill:#ffffff; fill-opacity:1.0;  stroke:#ffffff; stroke-width:0.010000; stroke-opacity:1;  stroke-linecap:round; stroke-linejoin:round;">
<circle cx="1752600.000000" cy="709400.000000" r="8325.000000"/> 
</g>
<g style="fill:#ffffff; fill-opacity:1.0;  stroke:#ffffff; stroke-width:0.010000; stroke-opacity:1;  stroke-linecap:round; stroke-linejoin:round;">
<circle cx="1752600.000000" cy="684000.000000" r="8325.000000"/> 
</g>
<g style="fill:#ffffff; fill-opacity:1.0;  stroke:#ffffff; stroke-width:0.010000; stroke-opacity:1;  stroke-linecap:round; stroke-linejoin:round;">
<circle cx="1752600.000000" cy="658600.000000" r="8325.000000"/> 
</g>
<g style="fill:#ffffff; fill-opacity:1.0;  stroke:#ffffff; stroke-width:0.010000; stroke-opacity:1;  stroke-linecap:round; stroke-linejoin:round;">
<circle cx="1752600.000000" cy="633200.000000" r="8325.000000"/> 
</g>
<g style="fill:#ffffff; fill-opacity:1.0;  stroke:#ffffff; stroke-width:0.010000; stroke-opacity:1;  stroke-linecap:round; stroke-linejoin:round;">
<circle cx="1752600.000000" cy="607800.000000" r="8325.000000"/> 
</g>
<g style="fill:#ffffff; fill-opacity:1.0;  stroke:#ffffff; stroke-width:0.010000; stroke-opacity:1;  stroke-linecap:round; stroke-linejoin:round;">
<path style="fill:#ffffff; fill-opacity:1.0;  stroke:#ffffff; stroke-width:0.010000; stroke-opacity:1;  stroke-linecap:round; stroke-linejoin:round;fill-rule:evenodd;" d="M 1760925.000000,574075.000000 1760925.000000,590725.000000 1744275.000000,590725.000000 1744275.000000,574075.000000 Z"/> 
<path style="fill:#ffffff; fill-opacity:1.0;  stroke:#ffffff; stroke-width:0.010000; stroke-opacity:1;  stroke-linecap:round; stroke-linejoin:round;fill-rule:evenodd;" d="M 1532325.000000,574075.000000 1532325.000000,590725.000000 1515675.000000,590725.000000 1515675.000000,574075.000000 Z"/> 
<circle cx="1524000.000000" cy="607800.000000" r="8325.000000"/> 
</g>
<g style="fill:#ffffff; fill-opacity:1.0;  stroke:#ffffff; stroke-width:0.010000; stroke-opacity:1;  stroke-linecap:round; stroke-linejoin:round;">
<circle cx="1524000.000000" cy="633200.000000" r="8325.000000"/> 
</g>
<g style="fill:#ffffff; fill-opacity:1.0;  stroke:#ffffff; stroke-width:0.010000; stroke-opacity:1;  stroke-linecap:round; stroke-linejoin:round;">
<circle cx="1524000.000000" cy="658600.000000" r="8325.000000"/> 
</g>
<g style="fill:#ffffff; fill-opacity:1.0;  stroke:#ffffff; stroke-width:0.010000; stroke-opacity:1;  stroke-linecap:round; stroke-linejoin:round;">
<circle cx="1524000.000000" cy="684000.000000" r="8325.000000"/> 
</g>
<g style="fill:#ffffff; fill-opacity:1.0;  stroke:#ffffff; stroke-width:0.010000; stroke-opacity:1;  stroke-linecap:round; stroke-linejoin:round;">
<circle cx="1524000.000000" cy="709400.000000" r="8325.000000"/> 
</g>
<g style="fill:#ffffff; fill-opacity:1.0;  stroke:#ffffff; stroke-width:0.010000; stroke-opacity:1;  stroke-linecap:round; stroke-linejoin:round;">
<circle cx="1524000.000000" cy="734800.000000" r="8325.000000"/> 
</g>
<g style="fill:#ffffff; fill-opacity:1.0;  stroke:#ffffff; stroke-width:0.010000; stroke-opacity:1;  stroke-linecap:round; stroke-linejoin:round;">
<circle cx="1524000.000000" cy="760200.000000" r="8325.000000"/> 
</g>
<g style="fill:#ffffff; fill-opacity:1.0;  stroke:#ffffff; stroke-width:0.010000; stroke-opacity:1;  stroke-linecap:round; stroke-linejoin:round;">
<circle cx="1708250.000000" cy="922850.000000" r="10000.000000"/> 
</g>
<g style="fill:#ffffff; fill-opacity:1.0;  stroke:#ffffff; stroke-width:0.010000; stroke-opacity:1;  stroke-linecap:round; stroke-linejoin:round;">
<circle cx="1570250.000000" cy="922850.000000" r="10000.000000"/> 
</g>
<g style="fill:#ffffff; fill-opacity:1.0;  stroke:#ffffff; stroke-width:0.010000; stroke-opacity:1;  stroke-linecap:round; stroke-linejoin:round;">
<circle cx="1570250.000000" cy="692850.000000" r="10000.000000"/> 
</g>
<g style="fill:#ffffff; fill-opacity:1.0;  stroke:#ffffff; stroke-width:0.010000; stroke-opacity:1;  stroke-linecap:round; stroke-linejoin:round;">
<circle cx="1600250.000000" cy="692850.000000" r="10000.000000"/> 
</g>
<g style="fill:#ffffff; fill-opacity:1.0;  stroke:#ffffff; stroke-width:0.010000; stroke-opacity:1;  stroke-linecap:round; stroke-linejoin:round;">
<circle cx="1678250.000000" cy="692850.000000" r="10000.000000"/> 
</g>
<g style="fill:#ffffff; fill-opacity:1.0;  stroke:#ffffff; stroke-width:0.010000; stroke-opacity:1;  stroke-linecap:round; stroke-linejoin:round;">
<circle cx="1708250.000000" cy="692850.000000" r="10000.000000"/> 
</g>
<g style="fill:#ffffff; fill-opacity:1.0;  stroke:#ffffff; stroke-width:0.010000; stroke-opacity:1;  stroke-linecap:round; stroke-linejoin:round;">
<path style="fill:#ffffff; fill-opacity:1.0;  stroke:#ffffff; stroke-width:0.010000; stroke-opacity:1;  stroke-linecap:round; stroke-linejoin:round;fill-rule:evenodd;" d="M 1721250.000000,514750.000000 1707750.000000,514750.000000 1707750.000000,501250.000000 1721250.000000,501250.000000 Z"/> 
<circle cx="1694500.000000" cy="508000.000000" r="6750.000000"/> 
</g>
</g> 
</mask><mask id="pads-mask-silkscreen"><rect x="1485400.0" y="469400.0" width="305800.0" height="483600.0" fill="white"/><g style="fill:#000000; fill-opacity:0.0;  stroke:#000000; stroke-width:0.000000; stroke-opacity:1;  stroke-linecap:round; stroke-linejoin:round;">
<g style="fill:#000000; fill-opacity:1.0;  stroke:#000000; stroke-width:0.010000; stroke-opacity:1;  stroke-linecap:round; stroke-linejoin:round;">
<circle cx="1634490.000000" cy="491490.000000" r="6500.000000"/> 
</g>
<g style="fill:#000000; fill-opacity:1.0;  stroke:#000000; stroke-width:0.010000; stroke-opacity:1;  stroke-linecap:round; stroke-linejoin:round;">
<circle cx="1609490.000000" cy="491490.000000" r="6500.000000"/> 
</g>
<g style="fill:#000000; fill-opacity:1.0;  stroke:#000000; stroke-width:0.010000; stroke-opacity:1;  stroke-linecap:round; stroke-linejoin:round;">
<circle cx="1584490.000000" cy="491490.000000" r="6500.000000"/> 
</g>
<g style="fill:#000000; fill-opacity:1.0;  stroke:#000000; stroke-width:0.010000; stroke-opacity:1;  stroke-linecap:round; stroke-linejoin:round;">
<circle cx="1752600.000000" cy="760200.000000" r="8325.000000"/> 
</g>
<g style="fill:#000000; fill-opacity:1.0;  stroke:#000000; stroke-width:0.010000; stroke-opacity:1;  stroke-linecap:round; stroke-linejoin:round;">
<circle cx="1752600.000000" cy="734800.000000" r="8325.000000"/> 
</g>
<g style="fill:#000000; fill-opacity:1.0;  stroke:#000000; stroke-width:0.010000; stroke-opacity:1;  stroke-linecap:round; stroke-linejoin:round;">
<circle cx="1752600.000000" cy="709400.000000" r="8325.000000"/> 
</g>
<g style="fill:#000000; fill-opacity:1.0;  stroke:#000000; stroke-width:0.010000; stroke-opacity:1;  stroke-linecap:round; stroke-linejoin:round;">
<circle cx="1752600.000000" cy="684000.000000" r="8325.000000"/> 
</g>
<g style="fill:#000000; fill-opacity:1.0;  stroke:#000000; stroke-width:0.010000; stroke-opacity:1;  stroke-linecap:round; stroke-linejoin:round;">
<circle cx="1752600.000000" cy="658600.000000" r="8325.000000"/> 
</g>
<g style="fill:#000000; fill-opacity:1.0;  stroke:#000000; stroke-width:0.010000; stroke-opacity:1;  stroke-linecap:round; stroke-linejoin:round;">
<circle cx="1752600.000000" cy="633200.000000" r="8325.000000"/> 
</g>
<g style="fill:#000000; fill-opacity:1.0;  stroke:#000000; stroke-width:0.010000; stroke-opacity:1;  stroke-linecap:round; stroke-linejoin:round;">
<circle cx="1752600.000000" cy="607800.000000" r="8325.000000"/> 
</g>
<g style="fill:#000000; fill-opacity:1.0;  stroke:#000000; stroke-width:0.010000; stroke-opacity:1;  stroke-linecap:round; stroke-linejoin:round;">
<path style="fill:#000000; fill-opacity:1.0;  stroke:#000000; stroke-width:0.010000; stroke-opacity:1;  stroke-linecap:round; stroke-linejoin:round;fill-rule:evenodd;" d="M 1760925.000000,574075.000000 1760925.000000,590725.000000 1744275.000000,590725.000000 1744275.000000,574075.000000 Z"/> 
<path style="fill:#000000; fill-opacity:1.0;  stroke:#000000; stroke-width:0.010000; stroke-opacity:1;  stroke-linecap:round; stroke-linejoin:round;fill-rule:evenodd;" d="M 1532325.000000,574075.000000 1532325.000000,590725.000000 1515675.000000,590725.000000 1515675.000000,574075.000000 Z"/> 
<circle cx="1524000.000000" cy="607800.000000" r="8325.000000"/> 
</g>
<g style="fill:#000000; fill-opacity:1.0;  stroke:#000000; stroke-width:0.010000; stroke-opacity:1;  stroke-linecap:round; stroke-linejoin:round;">
<circle cx="1524000.000000" cy="633200.000000" r="8325.000000"/> 
</g>
<g style="fill:#000000; fill-opacity:1.0;  stroke:#000000; stroke-width:0.010000; stroke-opacity:1;  stroke-linecap:round; stroke-linejoin:round;">
<circle cx="1524000.000000" cy="658600.000000" r="8325.000000"/> 
</g>
<g style="fill:#000000; fill-opacity:1.0;  stroke:#000000; stroke-width:0.010000; stroke-opacity:1;  stroke-linecap:round; stroke-linejoin:round;">
<circle cx="1524000.000000" cy="684000.000000" r="8325.000000"/> 
</g>
<g style="fill:#000000; fill-opacity:1.0;  stroke:#000000; stroke-width:0.010000; stroke-opacity:1;  stroke-linecap:round; stroke-linejoin:round;">
<circle cx="1524000.000000" cy="709400.000000" r="8325.000000"/> 
</g>
<g style="fill:#000000; fill-opacity:1.0;  stroke:#000000; stroke-width:0.010000; stroke-opacity:1;  stroke-linecap:round; stroke-linejoin:round;">
<circle cx="1524000.000000" cy="734800.000000" r="8325.000000"/> 
</g>
<g style="fill:#000000; fill-opacity:1.0;  stroke:#000000; stroke-width:0.010000; stroke-opacity:1;  stroke-linecap:round; stroke-linejoin:round;">
<circle cx="1524000.000000" cy="760200.000000" r="8325.000000"/> 
</g>
<g style="fill:#000000; fill-opacity:1.0;  stroke:#000000; stroke-width:0.010000; stroke-opacity:1;  stroke-linecap:round; stroke-linejoin:round;">
<circle cx="1708250.000000" cy="922850.000000" r="10000.000000"/> 
</g>
<g style="fill:#000000; fill-opacity:1.0;  stroke:#000000; stroke-width:0.010000; stroke-opacity:1;  stroke-linecap:round; stroke-linejoin:round;">
<circle cx="1570250.000000" cy="922850.000000" r="10000.000000"/> 
</g>
<g style="fill:#000000; fill-opacity:1.0;  stroke:#000000; stroke-width:0.010000; stroke-opacity:1;  stroke-linecap:round; stroke-linejoin:round;">
<circle cx="1570250.000000" cy="692850.000000" r="10000.000000"/> 
</g>
<g style="fill:#000000; fill-opacity:1.0;  stroke:#000000; stroke-width:0.010000; stroke-opacity:1;  stroke-linecap:round; stroke-linejoin:round;">
<circle cx="1600250.000000" cy="692850.000000" r="10000.000000"/> 
</g>
<g style="fill:#000000; fill-opacity:1.0;  stroke:#000000; stroke-width:0.010000; stroke-opacity:1;  stroke-linecap:round; stroke-linejoin:round;">
<circle cx="1678250.000000" cy="692850.000000" r="10000.000000"/> 
</g>
<g style="fill:#000000; fill-opacity:1.0;  stroke:#000000; stroke-width:0.010000; stroke-opacity:1;  stroke-linecap:round; stroke-linejoin:round;">
<circle cx="1708250.000000" cy="692850.000000" r="10000.000000"/> 
</g>
<g style="fill:#000000; fill-opacity:1.0;  stroke:#000000; stroke-width:0.010000; stroke-opacity:1;  stroke-linecap:round; stroke-linejoin:round;">
<path style="fill:#000000; fill-opacity:1.0;  stroke:#000000; stroke-width:0.010000; stroke-opacity:1;  stroke-linecap:round; stroke-linejoin:round;fill-rule:evenodd;" d="M 1721250.000000,514750.000000 1707750.000000,514750.000000 1707750.000000,501250.000000 1721250.000000,501250.000000 Z"/> 
<circle cx="1694500.000000" cy="508000.000000" r="6750.000000"/> 
</g>
</g> 
</mask><mask id="hole-mask"><g><rect x="1485400.0" y="469400.0" fill="white" width="305800.0" height="483600.0"/><polyline stroke-linecap="round" stroke="black" stroke-width="8000.0" points="-0.0 0 0.0 0" transform="translate(1634490.0 491490.0) rotate(-270.0)"/><polyline stroke-linecap="round" stroke="black" stroke-width="8000.0" points="-0.0 0 0.0 0" transform="translate(1609490.0 491490.0) rotate(-270.0)"/><polyline stroke-linecap="round" stroke="black" stroke-width="8000.0" points="-0.0 0 0.0 0" transform="translate(1584490.0 491490.0) rotate(-270.0)"/><polyline stroke-linecap="round" stroke="black" stroke-width="11100.0" points="-0.0 0 0.0 0" transform="translate(1752600.0 760200.0) rotate(-180.0)"/><polyline stroke-linecap="round" stroke="black" stroke-width="11100.0" points="-0.0 0 0.0 0" transform="translate(1752600.0 734800.0) rotate(-180.0)"/><polyline stroke-linecap="round" stroke="black" stroke-width="11100.0" points="-0.0 0 0.0 0" transform="translate(1752600.0 709400.0) rotate(-180.0)"/><polyline stroke-linecap="round" stroke="black" stroke-width="11100.0" points="-0.0 0 0.0 0" transform="translate(1752600.0 684000.0) rotate(-180.0)"/><polyline stroke-linecap="round" stroke="black" stroke-width="11100.0" points="-0.0 0 0.0 0" transform="translate(1752600.0 658600.0) rotate(-180.0)"/><polyline stroke-linecap="round" stroke="black" stroke-width="11100.0" points="-0.0 0 0.0 0" transform="translate(1752600.0 633200.0) rotate(-180.0)"/><polyline stroke-linecap="round" stroke="black" stroke-width="11100.0" points="-0.0 0 0.0 0" transform="translate(1752600.0 607800.0) rotate(-180.0)"/><polyline stroke-linecap="round" stroke="black" stroke-width="11100.0" points="-0.0 0 0.0 0" transform="translate(1752600.0 582400.0) rotate(-180.0)"/><polyline stroke-linecap="round" stroke="black" stroke-width="11100.0" points="-0.0 0 0.0 0" transform="translate(1524000.0 582400.0) rotate(-180.0)"/><polyline stroke-linecap="round" stroke="black" stroke-width="11100.0" points="-0.0 0 0.0 0" transform="translate(1524000.0 607800.0) rotate(-180.0)"/><polyline stroke-linecap="round" stroke="black" stroke-width="11100.0" points="-0.0 0 0.0 0" transform="translate(1524000.0 633200.0) rotate(-180.0)"/><polyline stroke-linecap="round" stroke="black" stroke-width="11100.0" points="-0.0 0 0.0 0" transform="translate(1524000.0 658600.0) rotate(-180.0)"/><polyline stroke-linecap="round" stroke="black" stroke-width="11100.0" points="-0.0 0 0.0 0" transform="translate(1524000.0 684000.0) rotate(-180.0)"/><polyline stroke-linecap="round" stroke="black" stroke-width="11100.0" points="-0.0 0 0.0 0" transform="translate(1524000.0 709400.0) rotate(-180.0)"/><polyline stroke-linecap="round" stroke="black" stroke-width="11100.0" points="-0.0 0 0.0 0" transform="translate(1524000.0 734800.0) rotate(-180.0)"/><polyline stroke-linecap="round" stroke="black" stroke-width="11100.0" points="-0.0 0 0.0 0" transform="translate(1524000.0 760200.0) rotate(-180.0)"/><polyline stroke-linecap="round" stroke="black" stroke-width="10000.0" points="-0.0 0 0.0 0" transform="translate(1708250.0 922850.0) rotate(-90.0)"/><polyline stroke-linecap="round" stroke="black" stroke-width="10000.0" points="-0.0 0 0.0 0" transform="translate(1570250.0 922850.0) rotate(-90.0)"/><polyline stroke-linecap="round" stroke="black" stroke-width="10000.0" points="-0.0 0 0.0 0" transform="translate(1570250.0 692850.0) rotate(-90.0)"/><polyline stroke-linecap="round" stroke="black" stroke-width="10000.0" points="-0.0 0 0.0 0" transform="translate(1600250.0 692850.0) rotate(-90.0)"/><polyline stroke-linecap="round" stroke="black" stroke-width="10000.0" points="-0.0 0 0.0 0" transform="translate(1678250.0 692850.0) rotate(-90.0)"/><polyline stroke-linecap="round" stroke="black" stroke-width="10000.0" points="-0.0 0 0.0 0" transform="translate(1708250.0 692850.0) rotate(-90.0)"/><polyline stroke-linecap="round" stroke="black" stroke-width="8000.0" points="-0.0 0 0.0 0" transform="translate(1714500.0 508000.0) rotate(-90.0)"/><polyline stroke-linecap="round" stroke="black" stroke-width="8000.0" points="-0.0 0 0.0 0" transform="translate(1694500.0 508000.0) rotate(-90.0)"/><polyline stroke-linecap="round" stroke="black" stroke-width="10.0" points="-0.0 0 0.0 0" transform="translate(1600200.0 609600.0) rotate(0)"/></g></mask></defs><g transform="scale(-1,1)" id="boardContainer"><g id="substrate" clip-path="url(#cut-off)" mask="url(#hole-mask)"><g id="substrate-board" style="fill:#208b47; stroke:#208b47;"><path d=" M 1790700.0 469900.0 L 1790700.0 952500.0 L 1485900.0 952500.0 L 1485900.0 469900.0 L 1790700.0 469900.0 " style="fill-rule: evenodd;"/><g style="fill-opacity: 0.0;stroke-width: 1000.000000;stroke-opacity: 1;stroke-linecap: round;stroke-linejoin: round">
<path d="M1485900 469900 L1790700 469900 "/>
<path d="M1790700 469900 L1790700 952500 "/>
<path d="M1790700 952500 L1485900 952500 "/>
<path d="M1485900 952500 L1485900 469900 "/>
</g> 
</g><g id="substrate-clad" style="fill:#332B16; stroke:#332B16;"><g style="fill-opacity: 0.0;stroke-width: 0.000000;stroke-opacity: 1;stroke-linecap: round;stroke-linejoin: round">
<g style="fill-opacity: 1.0;stroke-width: 0.010000;stroke-opacity: 1;stroke-linecap: round;stroke-linejoin: round">
<circle cx="1634490.000000" cy="491490.000000" r="6500.000000"/> 
</g>
<g style="fill-opacity: 1.0;stroke-width: 0.010000;stroke-opacity: 1;stroke-linecap: round;stroke-linejoin: round">
<circle cx="1609490.000000" cy="491490.000000" r="6500.000000"/> 
</g>
<g style="fill-opacity: 1.0;stroke-width: 0.010000;stroke-opacity: 1;stroke-linecap: round;stroke-linejoin: round">
<circle cx="1584490.000000" cy="491490.000000" r="6500.000000"/> 
</g>
<g style="fill-opacity: 1.0;stroke-width: 0.010000;stroke-opacity: 1;stroke-linecap: round;stroke-linejoin: round">
<circle cx="1752600.000000" cy="760200.000000" r="8325.000000"/> 
</g>
<g style="fill-opacity: 1.0;stroke-width: 0.010000;stroke-opacity: 1;stroke-linecap: round;stroke-linejoin: round">
<circle cx="1752600.000000" cy="734800.000000" r="8325.000000"/> 
</g>
<g style="fill-opacity: 1.0;stroke-width: 0.010000;stroke-opacity: 1;stroke-linecap: round;stroke-linejoin: round">
<circle cx="1752600.000000" cy="709400.000000" r="8325.000000"/> 
</g>
<g style="fill-opacity: 1.0;stroke-width: 0.010000;stroke-opacity: 1;stroke-linecap: round;stroke-linejoin: round">
<circle cx="1752600.000000" cy="684000.000000" r="8325.000000"/> 
</g>
<g style="fill-opacity: 1.0;stroke-width: 0.010000;stroke-opacity: 1;stroke-linecap: round;stroke-linejoin: round">
<circle cx="1752600.000000" cy="658600.000000" r="8325.000000"/> 
</g>
<g style="fill-opacity: 1.0;stroke-width: 0.010000;stroke-opacity: 1;stroke-linecap: round;stroke-linejoin: round">
<circle cx="1752600.000000" cy="633200.000000" r="8325.000000"/> 
</g>
<g style="fill-opacity: 1.0;stroke-width: 0.010000;stroke-opacity: 1;stroke-linecap: round;stroke-linejoin: round">
<circle cx="1752600.000000" cy="607800.000000" r="8325.000000"/> 
</g>
<g style="fill-opacity: 1.0;stroke-width: 0.010000;stroke-opacity: 1;stroke-linecap: round;stroke-linejoin: round">
<path style="fill-opacity: 1.0;stroke-width: 0.010000;stroke-opacity: 1;stroke-linecap: round;stroke-linejoin: round;fill-rule: evenodd" d="M 1760925.000000,574075.000000 1760925.000000,590725.000000 1744275.000000,590725.000000 1744275.000000,574075.000000 Z"/> 
<path style="fill-opacity: 1.0;stroke-width: 0.010000;stroke-opacity: 1;stroke-linecap: round;stroke-linejoin: round;fill-rule: evenodd" d="M 1532325.000000,574075.000000 1532325.000000,590725.000000 1515675.000000,590725.000000 1515675.000000,574075.000000 Z"/> 
<circle cx="1524000.000000" cy="607800.000000" r="8325.000000"/> 
</g>
<g style="fill-opacity: 1.0;stroke-width: 0.010000;stroke-opacity: 1;stroke-linecap: round;stroke-linejoin: round">
<circle cx="1524000.000000" cy="633200.000000" r="8325.000000"/> 
</g>
<g style="fill-opacity: 1.0;stroke-width: 0.010000;stroke-opacity: 1;stroke-linecap: round;stroke-linejoin: round">
<circle cx="1524000.000000" cy="658600.000000" r="8325.000000"/> 
</g>
<g style="fill-opacity: 1.0;stroke-width: 0.010000;stroke-opacity: 1;stroke-linecap: round;stroke-linejoin: round">
<circle cx="1524000.000000" cy="684000.000000" r="8325.000000"/> 
</g>
<g style="fill-opacity: 1.0;stroke-width: 0.010000;stroke-opacity: 1;stroke-linecap: round;stroke-linejoin: round">
<circle cx="1524000.000000" cy="709400.000000" r="8325.000000"/> 
</g>
<g style="fill-opacity: 1.0;stroke-width: 0.010000;stroke-opacity: 1;stroke-linecap: round;stroke-linejoin: round">
<circle cx="1524000.000000" cy="734800.000000" r="8325.000000"/> 
</g>
<g style="fill-opacity: 1.0;stroke-width: 0.010000;stroke-opacity: 1;stroke-linecap: round;stroke-linejoin: round">
<circle cx="1524000.000000" cy="760200.000000" r="8325.000000"/> 
</g>
<g style="fill-opacity: 1.0;stroke-width: 0.010000;stroke-opacity: 1;stroke-linecap: round;stroke-linejoin: round">
<circle cx="1708250.000000" cy="922850.000000" r="10000.000000"/> 
</g>
<g style="fill-opacity: 1.0;stroke-width: 0.010000;stroke-opacity: 1;stroke-linecap: round;stroke-linejoin: round">
<circle cx="1570250.000000" cy="922850.000000" r="10000.000000"/> 
</g>
<g style="fill-opacity: 1.0;stroke-width: 0.010000;stroke-opacity: 1;stroke-linecap: round;stroke-linejoin: round">
<circle cx="1570250.000000" cy="692850.000000" r="10000.000000"/> 
</g>
<g style="fill-opacity: 1.0;stroke-width: 0.010000;stroke-opacity: 1;stroke-linecap: round;stroke-linejoin: round">
<circle cx="1600250.000000" cy="692850.000000" r="10000.000000"/> 
</g>
<g style="fill-opacity: 1.0;stroke-width: 0.010000;stroke-opacity: 1;stroke-linecap: round;stroke-linejoin: round">
<circle cx="1678250.000000" cy="692850.000000" r="10000.000000"/> 
</g>
<g style="fill-opacity: 1.0;stroke-width: 0.010000;stroke-opacity: 1;stroke-linecap: round;stroke-linejoin: round">
<circle cx="1708250.000000" cy="692850.000000" r="10000.000000"/> 
</g>
<g style="fill-opacity: 1.0;stroke-width: 0.010000;stroke-opacity: 1;stroke-linecap: round;stroke-linejoin: round">
<path style="fill-opacity: 1.0;stroke-width: 0.010000;stroke-opacity: 1;stroke-linecap: round;stroke-linejoin: round;fill-rule: evenodd" d="M 1721250.000000,514750.000000 1707750.000000,514750.000000 1707750.000000,501250.000000 1721250.000000,501250.000000 Z"/> 
<circle cx="1694500.000000" cy="508000.000000" r="6750.000000"/> 
</g>
</g> 
</g><g id="substrate-copper" style="fill:#285e3a; stroke:#285e3a;"><g style="fill-opacity: 0.0;stroke-width: 0.000000;stroke-opacity: 1;stroke-linecap: round;stroke-linejoin: round">
<g style="fill-opacity: 1.0;stroke-width: 0.010000;stroke-opacity: 1;stroke-linecap: round;stroke-linejoin: round">
<circle cx="1634490.000000" cy="491490.000000" r="6500.000000"/> 
</g>
<g style="fill-opacity: 1.0;stroke-width: 0.010000;stroke-opacity: 1;stroke-linecap: round;stroke-linejoin: round">
<circle cx="1609490.000000" cy="491490.000000" r="6500.000000"/> 
</g>
<g style="fill-opacity: 1.0;stroke-width: 0.010000;stroke-opacity: 1;stroke-linecap: round;stroke-linejoin: round">
<circle cx="1584490.000000" cy="491490.000000" r="6500.000000"/> 
</g>
<g style="fill-opacity: 1.0;stroke-width: 0.010000;stroke-opacity: 1;stroke-linecap: round;stroke-linejoin: round">
<circle cx="1752600.000000" cy="760200.000000" r="8325.000000"/> 
</g>
<g style="fill-opacity: 1.0;stroke-width: 0.010000;stroke-opacity: 1;stroke-linecap: round;stroke-linejoin: round">
<circle cx="1752600.000000" cy="734800.000000" r="8325.000000"/> 
</g>
<g style="fill-opacity: 1.0;stroke-width: 0.010000;stroke-opacity: 1;stroke-linecap: round;stroke-linejoin: round">
<circle cx="1752600.000000" cy="709400.000000" r="8325.000000"/> 
</g>
<g style="fill-opacity: 1.0;stroke-width: 0.010000;stroke-opacity: 1;stroke-linecap: round;stroke-linejoin: round">
<circle cx="1752600.000000" cy="684000.000000" r="8325.000000"/> 
</g>
<g style="fill-opacity: 1.0;stroke-width: 0.010000;stroke-opacity: 1;stroke-linecap: round;stroke-linejoin: round">
<circle cx="1752600.000000" cy="658600.000000" r="8325.000000"/> 
</g>
<g style="fill-opacity: 1.0;stroke-width: 0.010000;stroke-opacity: 1;stroke-linecap: round;stroke-linejoin: round">
<circle cx="1752600.000000" cy="633200.000000" r="8325.000000"/> 
</g>
<g style="fill-opacity: 1.0;stroke-width: 0.010000;stroke-opacity: 1;stroke-linecap: round;stroke-linejoin: round">
<circle cx="1752600.000000" cy="607800.000000" r="8325.000000"/> 
</g>
<g style="fill-opacity: 1.0;stroke-width: 0.010000;stroke-opacity: 1;stroke-linecap: round;stroke-linejoin: round">
<path style="fill-opacity: 1.0;stroke-width: 0.010000;stroke-opacity: 1;stroke-linecap: round;stroke-linejoin: round;fill-rule: evenodd" d="M 1760925.000000,574075.000000 1760925.000000,590725.000000 1744275.000000,590725.000000 1744275.000000,574075.000000 Z"/> 
<path style="fill-opacity: 1.0;stroke-width: 0.010000;stroke-opacity: 1;stroke-linecap: round;stroke-linejoin: round;fill-rule: evenodd" d="M 1532325.000000,574075.000000 1532325.000000,590725.000000 1515675.000000,590725.000000 1515675.000000,574075.000000 Z"/> 
<circle cx="1524000.000000" cy="607800.000000" r="8325.000000"/> 
</g>
<g style="fill-opacity: 1.0;stroke-width: 0.010000;stroke-opacity: 1;stroke-linecap: round;stroke-linejoin: round">
<circle cx="1524000.000000" cy="633200.000000" r="8325.000000"/> 
</g>
<g style="fill-opacity: 1.0;stroke-width: 0.010000;stroke-opacity: 1;stroke-linecap: round;stroke-linejoin: round">
<circle cx="1524000.000000" cy="658600.000000" r="8325.000000"/> 
</g>
<g style="fill-opacity: 1.0;stroke-width: 0.010000;stroke-opacity: 1;stroke-linecap: round;stroke-linejoin: round">
<circle cx="1524000.000000" cy="684000.000000" r="8325.000000"/> 
</g>
<g style="fill-opacity: 1.0;stroke-width: 0.010000;stroke-opacity: 1;stroke-linecap: round;stroke-linejoin: round">
<circle cx="1524000.000000" cy="709400.000000" r="8325.000000"/> 
</g>
<g style="fill-opacity: 1.0;stroke-width: 0.010000;stroke-opacity: 1;stroke-linecap: round;stroke-linejoin: round">
<circle cx="1524000.000000" cy="734800.000000" r="8325.000000"/> 
</g>
<g style="fill-opacity: 1.0;stroke-width: 0.010000;stroke-opacity: 1;stroke-linecap: round;stroke-linejoin: round">
<circle cx="1524000.000000" cy="760200.000000" r="8325.000000"/> 
</g>
<g style="fill-opacity: 1.0;stroke-width: 0.010000;stroke-opacity: 1;stroke-linecap: round;stroke-linejoin: round">
<circle cx="1708250.000000" cy="922850.000000" r="10000.000000"/> 
</g>
<g style="fill-opacity: 1.0;stroke-width: 0.010000;stroke-opacity: 1;stroke-linecap: round;stroke-linejoin: round">
<circle cx="1570250.000000" cy="922850.000000" r="10000.000000"/> 
</g>
<g style="fill-opacity: 1.0;stroke-width: 0.010000;stroke-opacity: 1;stroke-linecap: round;stroke-linejoin: round">
<circle cx="1570250.000000" cy="692850.000000" r="10000.000000"/> 
</g>
<g style="fill-opacity: 1.0;stroke-width: 0.010000;stroke-opacity: 1;stroke-linecap: round;stroke-linejoin: round">
<circle cx="1600250.000000" cy="692850.000000" r="10000.000000"/> 
</g>
<g style="fill-opacity: 1.0;stroke-width: 0.010000;stroke-opacity: 1;stroke-linecap: round;stroke-linejoin: round">
<circle cx="1678250.000000" cy="692850.000000" r="10000.000000"/> 
</g>
<g style="fill-opacity: 1.0;stroke-width: 0.010000;stroke-opacity: 1;stroke-linecap: round;stroke-linejoin: round">
<circle cx="1708250.000000" cy="692850.000000" r="10000.000000"/> 
</g>
<g style="fill-opacity: 1.0;stroke-width: 0.010000;stroke-opacity: 1;stroke-linecap: round;stroke-linejoin: round">
<path style="fill-opacity: 1.0;stroke-width: 0.010000;stroke-opacity: 1;stroke-linecap: round;stroke-linejoin: round;fill-rule: evenodd" d="M 1721250.000000,514750.000000 1707750.000000,514750.000000 1707750.000000,501250.000000 1721250.000000,501250.000000 Z"/> 
<circle cx="1694500.000000" cy="508000.000000" r="6750.000000"/> 
</g>
<g style="fill-opacity: 1.0;stroke-width: 0.010000;stroke-opacity: 1;stroke-linecap: round;stroke-linejoin: round">
<circle cx="1600200.000000" cy="609600.000000" r="50.000000"/> 
</g>
<g style="fill-opacity: 0.0;stroke-width: 4000.000000;stroke-opacity: 1;stroke-linecap: round;stroke-linejoin: round">
<path d="M1709250 692850 L1626000 609600 "/>
<path d="M1626000 609600 L1600200 609600 "/>
</g>
</g> 
</g><g id="substrate-pads" style="fill:#d39751; stroke:#d39751;" mask="url(#pads-mask)"><g style="fill-opacity: 0.0;stroke-width: 0.000000;stroke-opacity: 1;stroke-linecap: round;stroke-linejoin: round">
<g style="fill-opacity: 1.0;stroke-width: 0.010000;stroke-opacity: 1;stroke-linecap: round;stroke-linejoin: round">
<circle cx="1634490.000000" cy="491490.000000" r="6500.000000"/> 
</g>
<g style="fill-opacity: 1.0;stroke-width: 0.010000;stroke-opacity: 1;stroke-linecap: round;stroke-linejoin: round">
<circle cx="1609490.000000" cy="491490.000000" r="6500.000000"/> 
</g>
<g style="fill-opacity: 1.0;stroke-width: 0.010000;stroke-opacity: 1;stroke-linecap: round;stroke-linejoin: round">
<circle cx="1584490.000000" cy="491490.000000" r="6500.000000"/> 
</g>
<g style="fill-opacity: 1.0;stroke-width: 0.010000;stroke-opacity: 1;stroke-linecap: round;stroke-linejoin: round">
<circle cx="1752600.000000" cy="760200.000000" r="8325.000000"/> 
</g>
<g style="fill-opacity: 1.0;stroke-width: 0.010000;stroke-opacity: 1;stroke-linecap: round;stroke-linejoin: round">
<circle cx="1752600.000000" cy="734800.000000" r="8325.000000"/> 
</g>
<g style="fill-opacity: 1.0;stroke-width: 0.010000;stroke-opacity: 1;stroke-linecap: round;stroke-linejoin: round">
<circle cx="1752600.000000" cy="709400.000000" r="8325.000000"/> 
</g>
<g style="fill-opacity: 1.0;stroke-width: 0.010000;stroke-opacity: 1;stroke-linecap: round;stroke-linejoin: round">
<circle cx="1752600.000000" cy="684000.000000" r="8325.000000"/> 
</g>
<g style="fill-opacity: 1.0;stroke-width: 0.010000;stroke-opacity: 1;stroke-linecap: round;stroke-linejoin: round">
<circle cx="1752600.000000" cy="658600.000000" r="8325.000000"/> 
</g>
<g style="fill-opacity: 1.0;stroke-width: 0.010000;stroke-opacity: 1;stroke-linecap: round;stroke-linejoin: round">
<circle cx="1752600.000000" cy="633200.000000" r="8325.000000"/> 
</g>
<g style="fill-opacity: 1.0;stroke-width: 0.010000;stroke-opacity: 1;stroke-linecap: round;stroke-linejoin: round">
<circle cx="1752600.000000" cy="607800.000000" r="8325.000000"/> 
</g>
<g style="fill-opacity: 1.0;stroke-width: 0.010000;stroke-opacity: 1;stroke-linecap: round;stroke-linejoin: round">
<path style="fill-opacity: 1.0;stroke-width: 0.010000;stroke-opacity: 1;stroke-linecap: round;stroke-linejoin: round;fill-rule: evenodd" d="M 1760925.000000,574075.000000 1760925.000000,590725.000000 1744275.000000,590725.000000 1744275.000000,574075.000000 Z"/> 
<path style="fill-opacity: 1.0;stroke-width: 0.010000;stroke-opacity: 1;stroke-linecap: round;stroke-linejoin: round;fill-rule: evenodd" d="M 1532325.000000,574075.000000 1532325.000000,590725.000000 1515675.000000,590725.000000 1515675.000000,574075.000000 Z"/> 
<circle cx="1524000.000000" cy="607800.000000" r="8325.000000"/> 
</g>
<g style="fill-opacity: 1.0;stroke-width: 0.010000;stroke-opacity: 1;stroke-linecap: round;stroke-linejoin: round">
<circle cx="1524000.000000" cy="633200.000000" r="8325.000000"/> 
</g>
<g style="fill-opacity: 1.0;stroke-width: 0.010000;stroke-opacity: 1;stroke-linecap: round;stroke-linejoin: round">
<circle cx="1524000.000000" cy="658600.000000" r="8325.000000"/> 
</g>
<g style="fill-opacity: 1.0;stroke-width: 0.010000;stroke-opacity: 1;stroke-linecap: round;stroke-linejoin: round">
<circle cx="1524000.000000" cy="684000.000000" r="8325.000000"/> 
</g>
<g style="fill-opacity: 1.0;stroke-width: 0.010000;stroke-opacity: 1;stroke-linecap: round;stroke-linejoin: round">
<circle cx="1524000.000000" cy="709400.000000" r="8325.000000"/> 
</g>
<g style="fill-opacity: 1.0;stroke-width: 0.010000;stroke-opacity: 1;stroke-linecap: round;stroke-linejoin: round">
<circle cx="1524000.000000" cy="734800.000000" r="8325.000000"/> 
</g>
<g style="fill-opacity: 1.0;stroke-width: 0.010000;stroke-opacity: 1;stroke-linecap: round;stroke-linejoin: round">
<circle cx="1524000.000000" cy="760200.000000" r="8325.000000"/> 
</g>
<g style="fill-opacity: 1.0;stroke-width: 0.010000;stroke-opacity: 1;stroke-linecap: round;stroke-linejoin: round">
<circle cx="1708250.000000" cy="922850.000000" r="10000.000000"/> 
</g>
<g style="fill-opacity: 1.0;stroke-width: 0.010000;stroke-opacity: 1;stroke-linecap: round;stroke-linejoin: round">
<circle cx="1570250.000000" cy="922850.000000" r="10000.000000"/> 
</g>
<g style="fill-opacity: 1.0;stroke-width: 0.010000;stroke-opacity: 1;stroke-linecap: round;stroke-linejoin: round">
<circle cx="1570250.000000" cy="692850.000000" r="10000.000000"/> 
</g>
<g style="fill-opacity: 1.0;stroke-width: 0.010000;stroke-opacity: 1;stroke-linecap: round;stroke-linejoin: round">
<circle cx="1600250.000000" cy="692850.000000" r="10000.000000"/> 
</g>
<g style="fill-opacity: 1.0;stroke-width: 0.010000;stroke-opacity: 1;stroke-linecap: round;stroke-linejoin: round">
<circle cx="1678250.000000" cy="692850.000000" r="10000.000000"/> 
</g>
<g style="fill-opacity: 1.0;stroke-width: 0.010000;stroke-opacity: 1;stroke-linecap: round;stroke-linejoin: round">
<circle cx="1708250.000000" cy="692850.000000" r="10000.000000"/> 
</g>
<g style="fill-opacity: 1.0;stroke-width: 0.010000;stroke-opacity: 1;stroke-linecap: round;stroke-linejoin: round">
<path style="fill-opacity: 1.0;stroke-width: 0.010000;stroke-opacity: 1;stroke-linecap: round;stroke-linejoin: round;fill-rule: evenodd" d="M 1721250.000000,514750.000000 1707750.000000,514750.000000 1707750.000000,501250.000000 1721250.000000,501250.000000 Z"/> 
<circle cx="1694500.000000" cy="508000.000000" r="6750.000000"/> 
</g>
<g style="fill-opacity: 1.0;stroke-width: 0.010000;stroke-opacity: 1;stroke-linecap: round;stroke-linejoin: round">
<circle cx="1600200.000000" cy="609600.000000" r="50.000000"/> 
</g>
<g style="fill-opacity: 0.0;stroke-width: 4000.000000;stroke-opacity: 1;stroke-linecap: round;stroke-linejoin: round">
<path d="M1709250 692850 L1626000 609600 "/>
<path d="M1626000 609600 L1600200 609600 "/>
</g>
</g> 
</g><g id="substrate-silk" style="fill:#d5dce4; stroke:#d5dce4;" mask="url(#pads-mask-silkscreen)"><g style="fill-opacity: 0.0;stroke-width: 2540.000000;stroke-opacity: 1;stroke-linecap: round;stroke-linejoin: round">
<g transform="rotate(-90.000000 1609490.000000 472990.000000)">
<text x="1609490.000000" y="479340.000000" transform="scale(-1 1) translate(-3218980.000000 0)" textLength="36754.760000" font-size="16933.330000" lengthAdjust="spacingAndGlyphs" text-anchor="middle" opacity="0">SW1</text>
</g>
<g class="stroked-text"><desc>SW1</desc>
<path d="M1614630 456056 L1615235 457870 L1615235 460894 L1614630 462104 L1614025 462709 L1612816 463313 L1611606 463313 L1610397 462709 L1609792 462104 L1609187 460894 L1608582 458475 L1607978 457266 L1607373 456661 L1606163 456056 L1604954 456056 L1603744 456661 L1603140 457266 L1602535 458475 L1602535 461499 L1603140 463313 "/>
<path d="M1602535 467547 L1615235 470570 L1606163 472990 L1615235 475409 L1602535 478432 "/>
<path d="M1615235 489923 L1615235 482666 "/>
<path d="M1615235 486294 L1602535 486294 L1604349 485085 L1605559 483875 L1606163 482666 "/>
</g><text x="1638300.000000" y="742950.000000" transform="scale(-1 1) translate(-3276600.000000 0)" textLength="27540.860000" font-size="16933.330000" lengthAdjust="spacingAndGlyphs" text-anchor="middle" opacity="0">IC1</text>
<g class="stroked-text"><desc>IC1</desc>
<path d="M1650697 742345 L1650697 729645 "/>
<path d="M1637392 741135 L1637997 741740 L1639811 742345 L1641021 742345 L1642835 741740 L1644045 740530 L1644650 739321 L1645254 736902 L1645254 735088 L1644650 732669 L1644045 731459 L1642835 730250 L1641021 729645 L1639811 729645 L1637997 730250 L1637392 730854 "/>
<path d="M1625297 742345 L1632554 742345 "/>
<path d="M1628926 742345 L1628926 729645 L1630135 731459 L1631345 732669 L1632554 733273 "/>
</g></g>
<g style="fill-opacity: 0.0;stroke-width: 1500.000000;stroke-opacity: 1;stroke-linecap: round;stroke-linejoin: round">
<g transform="rotate(-270.000000 1680250.000000 795450.000000)">
<text x="1680250.000000" y="800450.000000" transform="scale(-1 1) translate(-3360500.000000 0)" textLength="16698.000000" font-size="13333.330000" lengthAdjust="spacingAndGlyphs" text-anchor="middle" opacity="0">U1</text>
</g>
<g class="stroked-text"><desc>U1</desc>
<path d="M1685726 803069 L1677630 803069 L1676678 802592 L1676202 802116 L1675726 801164 L1675726 799259 L1676202 798307 L1676678 797830 L1677630 797354 L1685726 797354 "/>
<path d="M1675726 787354 L1675726 793069 "/>
<path d="M1675726 790211 L1685726 790211 L1684297 791164 L1683345 792116 L1682869 793069 "/>
</g><g transform="rotate(-270.000000 1683250.000000 717850.000000)">
<text x="1683250.000000" y="722850.000000" transform="scale(-1 1) translate(-3366500.000000 0)" textLength="20430.950000" font-size="13333.330000" lengthAdjust="spacingAndGlyphs" text-anchor="middle" opacity="0">B+</text>
</g>
<g class="stroked-text"><desc>B+</desc>
<path d="M1683964 723326 L1683488 721897 L1683011 721421 L1682059 720945 L1680630 720945 L1679678 721421 L1679202 721897 L1678726 722850 L1678726 726659 L1688726 726659 L1688726 723326 L1688250 722373 L1687773 721897 L1686821 721421 L1685869 721421 L1684916 721897 L1684440 722373 L1683964 723326 L1683964 726659 "/>
<path d="M1682535 716659 L1682535 709040 "/>
<path d="M1678726 712850 L1686345 712850 "/>
</g><g transform="rotate(-270.000000 1708250.000000 892850.000000)">
<text x="1708250.000000" y="897850.000000" transform="scale(-1 1) translate(-3416500.000000 0)" textLength="25669.050000" font-size="13333.330000" lengthAdjust="spacingAndGlyphs" text-anchor="middle" opacity="0">IN+</text>
</g>
<g class="stroked-text"><desc>IN+</desc>
<path d="M1703726 904278 L1713726 904278 "/>
<path d="M1703726 899516 L1713726 899516 L1703726 893802 L1713726 893802 "/>
<path d="M1707535 889040 L1707535 881421 "/>
<path d="M1703726 885230 L1711345 885230 "/>
</g><g transform="rotate(-270.000000 1568250.000000 727850.000000)">
<text x="1568250.000000" y="732850.000000" transform="scale(-1 1) translate(-3136500.000000 0)" textLength="39002.380000" font-size="13333.330000" lengthAdjust="spacingAndGlyphs" text-anchor="middle" opacity="0">OUT-</text>
</g>
<g class="stroked-text"><desc>OUT-</desc>
<path d="M1573726 744040 L1573726 742135 L1573250 741183 L1572297 740230 L1570392 739754 L1567059 739754 L1565154 740230 L1564202 741183 L1563726 742135 L1563726 744040 L1564202 744992 L1565154 745945 L1567059 746421 L1570392 746421 L1572297 745945 L1573250 744992 L1573726 744040 "/>
<path d="M1573726 735469 L1565630 735469 L1564678 734992 L1564202 734516 L1563726 733564 L1563726 731659 L1564202 730707 L1564678 730230 L1565630 729754 L1573726 729754 "/>
<path d="M1573726 726421 L1573726 720707 "/>
<path d="M1563726 723564 L1573726 723564 "/>
<path d="M1567535 717373 L1567535 709754 "/>
</g><g transform="rotate(-270.000000 1708250.000000 727850.000000)">
<text x="1708250.000000" y="732850.000000" transform="scale(-1 1) translate(-3416500.000000 0)" textLength="39002.380000" font-size="13333.330000" lengthAdjust="spacingAndGlyphs" text-anchor="middle" opacity="0">OUT+</text>
</g>
<g class="stroked-text"><desc>OUT+</desc>
<path d="M1713726 744040 L1713726 742135 L1713250 741183 L1712297 740230 L1710392 739754 L1707059 739754 L1705154 740230 L1704202 741183 L1703726 742135 L1703726 744040 L1704202 744992 L1705154 745945 L1707059 746421 L1710392 746421 L1712297 745945 L1713250 744992 L1713726 744040 "/>
<path d="M1713726 735469 L1705630 735469 L1704678 734992 L1704202 734516 L1703726 733564 L1703726 731659 L1704202 730707 L1704678 730230 L1705630 729754 L1713726 729754 "/>
<path d="M1713726 726421 L1713726 720707 "/>
<path d="M1703726 723564 L1713726 723564 "/>
<path d="M1707535 717373 L1707535 709754 "/>
<path d="M1703726 713564 L1711345 713564 "/>
</g><g transform="rotate(-270.000000 1593250.000000 717850.000000)">
<text x="1593250.000000" y="722850.000000" transform="scale(-1 1) translate(-3186500.000000 0)" textLength="20430.950000" font-size="13333.330000" lengthAdjust="spacingAndGlyphs" text-anchor="middle" opacity="0">B-</text>
</g>
<g class="stroked-text"><desc>B-</desc>
<path d="M1593964 723326 L1593488 721897 L1593011 721421 L1592059 720945 L1590630 720945 L1589678 721421 L1589202 721897 L1588726 722850 L1588726 726659 L1598726 726659 L1598726 723326 L1598250 722373 L1597773 721897 L1596821 721421 L1595869 721421 L1594916 721897 L1594440 722373 L1593964 723326 L1593964 726659 "/>
<path d="M1592535 716659 L1592535 709040 "/>
</g><g transform="rotate(-270.000000 1568250.000000 892850.000000)">
<text x="1568250.000000" y="897850.000000" transform="scale(-1 1) translate(-3136500.000000 0)" textLength="25669.050000" font-size="13333.330000" lengthAdjust="spacingAndGlyphs" text-anchor="middle" opacity="0">IN-</text>
</g>
<g class="stroked-text"><desc>IN-</desc>
<path d="M1563726 904278 L1573726 904278 "/>
<path d="M1563726 899516 L1573726 899516 L1563726 893802 L1573726 893802 "/>
<path d="M1567535 889040 L1567535 881421 "/>
</g><g transform="rotate(-90.000000 1735100.000000 508000.000000)">
<text x="1735100.000000" y="513000.000000" transform="scale(-1 1) translate(-3470200.000000 0)" textLength="15192.860000" font-size="13333.330000" lengthAdjust="spacingAndGlyphs" text-anchor="middle" opacity="0">J1</text>
</g>
<g class="stroked-text"><desc>J1</desc>
<path d="M1729623 504666 L1736766 504666 L1738195 504190 L1739147 503238 L1739623 501809 L1739623 500857 "/>
<path d="M1739623 514666 L1739623 508952 "/>
<path d="M1739623 511809 L1729623 511809 L1731052 510857 L1732004 509904 L1732480 508952 "/>
</g></g>
<g style="fill-opacity: 0.0;stroke-width: 1000.000000;stroke-opacity: 1;stroke-linecap: round;stroke-linejoin: round">
<path d="M1644490 500490 L1651990 500490 "/>
<path d="M1566990 465490 L1566990 500490 "/>
<path d="M1566990 500490 L1574490 500490 "/>
<path d="M1651990 500490 L1651990 465490 "/>
<path d="M1651990 465490 L1566990 465490 "/>
<path d="M1773300 536600 L1773300 936600 "/>
<path d="M1503300 536600 L1773300 536600 "/>
<path d="M1503300 936600 L1503300 536600 "/>
<path d="M1773300 936600 L1503300 936600 "/>
</g>
<g style="fill-opacity: 0.0;stroke-width: 1200.000000;stroke-opacity: 1;stroke-linecap: round;stroke-linejoin: round">
<path d="M1725250 667850 L1553250 667850 "/>
<path d="M1725250 947850 L1725250 667850 "/>
<path d="M1553250 947850 L1553250 667850 "/>
<path d="M1725250 947850 L1553250 947850 "/>
<path d="M1704500 518600 L1704500 497400 "/>
<path d="M1725100 518600 L1725100 508000 "/>
<path d="M1683900 518600 L1683900 497400 "/>
<path d="M1704500 497400 L1683900 497400 "/>
<path d="M1714500 518600 L1725100 518600 "/>
<path d="M1704500 518600 L1683900 518600 "/>
</g> 
</g><g id="substrate-outline" style="fill:#000000; stroke:#000000; stroke-width: 1500.0"><g style="fill-opacity: 0.0;stroke-opacity: 1;stroke-linecap: round;stroke-linejoin: round">
<path d="M1485900 469900 L1790700 469900 "/>
<path d="M1790700 469900 L1790700 952500 "/>
<path d="M1790700 952500 L1485900 952500 "/>
<path d="M1485900 952500 L1485900 469900 "/>
</g> 
<path d="M -4000.0 0.0 A 4000.0 4000.0 0 1 1 4000.0 0.0 L 4000.0 -0.0 A 4000.0 4000.0 0 1 1 -4000.0 -0.0 Z" transform="translate(1634490.0 491490.0) rotate(-270.0)"/><path d="M -4000.0 0.0 A 4000.0 4000.0 0 1 1 4000.0 0.0 L 4000.0 -0.0 A 4000.0 4000.0 0 1 1 -4000.0 -0.0 Z" transform="translate(1609490.0 491490.0) rotate(-270.0)"/><path d="M -4000.0 0.0 A 4000.0 4000.0 0 1 1 4000.0 0.0 L 4000.0 -0.0 A 4000.0 4000.0 0 1 1 -4000.0 -0.0 Z" transform="translate(1584490.0 491490.0) rotate(-270.0)"/><path d="M -5550.0 0.0 A 5550.0 5550.0 0 1 1 5550.0 0.0 L 5550.0 -0.0 A 5550.0 5550.0 0 1 1 -5550.0 -0.0 Z" transform="translate(1752600.0 760200.0) rotate(-180.0)"/><path d="M -5550.0 0.0 A 5550.0 5550.0 0 1 1 5550.0 0.0 L 5550.0 -0.0 A 5550.0 5550.0 0 1 1 -5550.0 -0.0 Z" transform="translate(1752600.0 734800.0) rotate(-180.0)"/><path d="M -5550.0 0.0 A 5550.0 5550.0 0 1 1 5550.0 0.0 L 5550.0 -0.0 A 5550.0 5550.0 0 1 1 -5550.0 -0.0 Z" transform="translate(1752600.0 709400.0) rotate(-180.0)"/><path d="M -5550.0 0.0 A 5550.0 5550.0 0 1 1 5550.0 0.0 L 5550.0 -0.0 A 5550.0 5550.0 0 1 1 -5550.0 -0.0 Z" transform="translate(1752600.0 684000.0) rotate(-180.0)"/><path d="M -5550.0 0.0 A 5550.0 5550.0 0 1 1 5550.0 0.0 L 5550.0 -0.0 A 5550.0 5550.0 0 1 1 -5550.0 -0.0 Z" transform="translate(1752600.0 658600.0) rotate(-180.0)"/><path d="M -5550.0 0.0 A 5550.0 5550.0 0 1 1 5550.0 0.0 L 5550.0 -0.0 A 5550.0 5550.0 0 1 1 -5550.0 -0.0 Z" transform="translate(1752600.0 633200.0) rotate(-180.0)"/><path d="M -5550.0 0.0 A 5550.0 5550.0 0 1 1 5550.0 0.0 L 5550.0 -0.0 A 5550.0 5550.0 0 1 1 -5550.0 -0.0 Z" transform="translate(1752600.0 607800.0) rotate(-180.0)"/><path d="M -5550.0 0.0 A 5550.0 5550.0 0 1 1 5550.0 0.0 L 5550.0 -0.0 A 5550.0 5550.0 0 1 1 -5550.0 -0.0 Z" transform="translate(1752600.0 582400.0) rotate(-180.0)"/><path d="M -5550.0 0.0 A 5550.0 5550.0 0 1 1 5550.0 0.0 L 5550.0 -0.0 A 5550.0 5550.0 0 1 1 -5550.0 -0.0 Z" transform="translate(1524000.0 582400.0) rotate(-180.0)"/><path d="M -5550.0 0.0 A 5550.0 5550.0 0 1 1 5550.0 0.0 L 5550.0 -0.0 A 5550.0 5550.0 0 1 1 -5550.0 -0.0 Z" transform="translate(1524000.0 607800.0) rotate(-180.0)"/><path d="M -5550.0 0.0 A 5550.0 5550.0 0 1 1 5550.0 0.0 L 5550.0 -0.0 A 5550.0 5550.0 0 1 1 -5550.0 -0.0 Z" transform="translate(1524000.0 633200.0) rotate(-180.0)"/><path d="M -5550.0 0.0 A 5550.0 5550.0 0 1 1 5550.0 0.0 L 5550.0 -0.0 A 5550.0 5550.0 0 1 1 -5550.0 -0.0 Z" transform="translate(1524000.0 658600.0) rotate(-180.0)"/><path d="M -5550.0 0.0 A 5550.0 5550.0 0 1 1 5550.0 0.0 L 5550.0 -0.0 A 5550.0 5550.0 0 1 1 -5550.0 -0.0 Z" transform="translate(1524000.0 684000.0) rotate(-180.0)"/><path d="M -5550.0 0.0 A 5550.0 5550.0 0 1 1 5550.0 0.0 L 5550.0 -0.0 A 5550.0 5550.0 0 1 1 -5550.0 -0.0 Z" transform="translate(1524000.0 709400.0) rotate(-180.0)"/><path d="M -5550.0 0.0 A 5550.0 5550.0 0 1 1 5550.0 0.0 L 5550.0 -0.0 A 5550.0 5550.0 0 1 1 -5550.0 -0.0 Z" transform="translate(1524000.0 734800.0) rotate(-180.0)"/><path d="M -5550.0 0.0 A 5550.0 5550.0 0 1 1 5550.0 0.0 L 5550.0 -0.0 A 5550.0 5550.0 0 1 1 -5550.0 -0.0 Z" transform="translate(1524000.0 760200.0) rotate(-180.0)"/><path d="M -5000.0 0.0 A 5000.0 5000.0 0 1 1 5000.0 0.0 L 5000.0 -0.0 A 5000.0 5000.0 0 1 1 -5000.0 -0.0 Z" transform="translate(1708250.0 922850.0) rotate(-90.0)"/><path d="M -5000.0 0.0 A 5000.0 5000.0 0 1 1 5000.0 0.0 L 5000.0 -0.0 A 5000.0 5000.0 0 1 1 -5000.0 -0.0 Z" transform="translate(1570250.0 922850.0) rotate(-90.0)"/><path d="M -5000.0 0.0 A 5000.0 5000.0 0 1 1 5000.0 0.0 L 5000.0 -0.0 A 5000.0 5000.0 0 1 1 -5000.0 -0.0 Z" transform="translate(1570250.0 692850.0) rotate(-90.0)"/><path d="M -5000.0 0.0 A 5000.0 5000.0 0 1 1 5000.0 0.0 L 5000.0 -0.0 A 5000.0 5000.0 0 1 1 -5000.0 -0.0 Z" transform="translate(1600250.0 692850.0) rotate(-90.0)"/><path d="M -5000.0 0.0 A 5000.0 5000.0 0 1 1 5000.0 0.0 L 5000.0 -0.0 A 5000.0 5000.0 0 1 1 -5000.0 -0.0 Z" transform="translate(1678250.0 692850.0) rotate(-90.0)"/><path d="M -5000.0 0.0 A 5000.0 5000.0 0 1 1 5000.0 0.0 L 5000.0 -0.0 A 5000.0 5000.0 0 1 1 -5000.0 -0.0 Z" transform="translate(1708250.0 692850.0) rotate(-90.0)"/><path d="M -4000.0 0.0 A 4000.0 4000.0 0 1 1 4000.0 0.0 L 4000.0 -0.0 A 4000.0 4000.0 0 1 1 -4000.0 -0.0 Z" transform="translate(1714500.0 508000.0) rotate(-90.0)"/><path d="M -4000.0 0.0 A 4000.0 4000.0 0 1 1 4000.0 0.0 L 4000.0 -0.0 A 4000.0 4000.0 0 1 1 -4000.0 -0.0 Z" transform="translate(1694500.0 508000.0) rotate(-90.0)"/><path d="M -5.0 0.0 A 5.0 5.0 0 1 1 5.0 0.0 L 5.0 -0.0 A 5.0 5.0 0 1 1 -5.0 -0.0 Z" transform="translate(1600200.0 609600.0) rotate(0)"/></g></g></g></svg>